<svg xmlns="http://www.w3.org/2000/svg" width="1440" height="900" viewBox="0 0 1440 900" role="img" aria-labelledby="title desc">
  <title id="title">Mortgage Simulator overview</title>
  <desc id="desc">A simplified overview of the Streamlit app sections: summary, purchase and mortgage, room pricing, surplus allocation, and detailed summary.</desc>
  <rect width="1440" height="900" fill="#f8fafc"/>
  <text x="72" y="82" font-family="Arial, sans-serif" font-size="42" font-weight="700" fill="#111827">Mortgage Simulator</text>
  <g transform="translate(72 125)">
    <rect width="1296" height="110" rx="12" fill="#ffffff" stroke="#d1d5db"/>
    <text x="28" y="42" font-family="Arial, sans-serif" font-size="24" font-weight="700" fill="#111827">Summary</text>
    <g font-family="Arial, sans-serif" font-size="18" fill="#374151">
      <text x="28" y="82">Upfront cash</text>
      <text x="280" y="82">Mortgage amount</text>
      <text x="555" y="82">Monthly payment</text>
      <text x="835" y="82">Net rent</text>
      <text x="1060" y="82">Monthly cashflow</text>
    </g>
  </g>
  <g transform="translate(72 265)">
    <rect width="622" height="210" rx="12" fill="#ffffff" stroke="#d1d5db"/>
    <text x="28" y="42" font-family="Arial, sans-serif" font-size="24" font-weight="700" fill="#111827">Purchase And Mortgage</text>
    <g fill="#e5e7eb">
      <rect x="28" y="68" width="258" height="34" rx="6"/>
      <rect x="320" y="68" width="258" height="34" rx="6"/>
      <rect x="28" y="120" width="258" height="34" rx="6"/>
      <rect x="320" y="120" width="258" height="34" rx="6"/>
    </g>
    <text x="28" y="185" font-family="Arial, sans-serif" font-size="17" fill="#374151">Initial costs: notary, taxes, agency, renovation, other costs</text>
  </g>
  <g transform="translate(746 265)">
    <rect width="622" height="210" rx="12" fill="#ffffff" stroke="#d1d5db"/>
    <text x="28" y="42" font-family="Arial, sans-serif" font-size="24" font-weight="700" fill="#111827">Upfront Cost Split</text>
    <circle cx="316" cy="122" r="62" fill="none" stroke="#2563eb" stroke-width="32"/>
    <path d="M316 60 A62 62 0 0 1 374 101" fill="none" stroke="#f59e0b" stroke-width="32"/>
    <path d="M374 101 A62 62 0 0 1 335 181" fill="none" stroke="#10b981" stroke-width="32"/>
  </g>
  <g transform="translate(72 505)">
    <rect width="622" height="245" rx="12" fill="#ffffff" stroke="#d1d5db"/>
    <text x="28" y="42" font-family="Arial, sans-serif" font-size="24" font-weight="700" fill="#111827">Room Pricing</text>
    <g fill="#e5e7eb">
      <rect x="28" y="68" width="258" height="34" rx="6"/>
      <rect x="320" y="68" width="258" height="34" rx="6"/>
      <rect x="28" y="122" width="550" height="34" rx="6"/>
      <rect x="28" y="170" width="550" height="34" rx="6"/>
    </g>
    <text x="28" y="224" font-family="Arial, sans-serif" font-size="17" fill="#374151">Dynamic room table plus break-even cashflow chart</text>
  </g>
  <g transform="translate(746 505)">
    <rect width="622" height="245" rx="12" fill="#ffffff" stroke="#d1d5db"/>
    <text x="28" y="42" font-family="Arial, sans-serif" font-size="24" font-weight="700" fill="#111827">Surplus Allocation</text>
    <text x="28" y="82" font-family="Arial, sans-serif" font-size="18" fill="#374151">Monthly cashflow is split between early repayment and investment.</text>
    <g fill="#e5e7eb">
      <rect x="28" y="112" width="205" height="62" rx="8"/>
      <rect x="258" y="112" width="70" height="28" rx="6"/>
      <rect x="258" y="146" width="70" height="28" rx="6"/>
      <rect x="355" y="112" width="223" height="62" rx="8"/>
      <rect x="28" y="194" width="550" height="28" rx="6"/>
    </g>
    <text x="280" y="134" text-anchor="middle" font-family="Arial, sans-serif" font-size="20" fill="#111827">→</text>
    <text x="280" y="168" text-anchor="middle" font-family="Arial, sans-serif" font-size="20" fill="#111827">←</text>
  </g>
  <g transform="translate(72 780)">
    <rect width="1296" height="70" rx="12" fill="#ffffff" stroke="#d1d5db"/>
    <text x="28" y="44" font-family="Arial, sans-serif" font-size="24" font-weight="700" fill="#111827">Detailed Summary</text>
    <text x="280" y="44" font-family="Arial, sans-serif" font-size="18" fill="#374151">Purchase, initial costs, rental, repayment, and investment values broken down by section</text>
  </g>
</svg>
